{
	"asset":{
		"generator":"Khronos glTF Blender I/O v4.0.44",
		"version":"2.0"
	},
	"extensionsUsed":[
		"KHR_materials_emissive_strength"
	],
	"scene":0,
	"scenes":[
		{
			"name":"Scene",
			"nodes":[
				0,
				1,
				2,
				3
			]
		}
	],
	"nodes":[
		{
			"mesh":0,
			"name":"base"
		},
		{
			"mesh":1,
			"name":"monitor",
			"rotation":[
				0,
				0,
				-0.5,
				0.8660253882408142
			],
			"translation":[
				-1.4991227388381958,
				0.8465051651000977,
				0
			]
		},
		{
			"mesh":2,
			"name":"keys",
			"scale":[
				0.03724004328250885,
				0.013997281901538372,
				0.05744605138897896
			],
			"translation":[
				-0.6124849319458008,
				-0.04050939902663231,
				0.963575541973114
			]
		},
		{
			"mesh":3,
			"name":"Text",
			"rotation":[
				0.6123723387718201,
				-0.3535534143447876,
				0.6123724579811096,
				0.35355344414711
			],
			"scale":[
				0.3504788875579834,
				0.3504788875579834,
				0.3504788875579834
			],
			"translation":[
				-1.5609980821609497,
				0.9136720299720764,
				-0.006747007369995117
			]
		}
	],
	"materials":[
		{
			"doubleSided":true,
			"name":"Material.001",
			"pbrMetallicRoughness":{
				"baseColorFactor":[
					0.40699470043182373,
					0.305803120136261,
					0.28144028782844543,
					1
				],
				"metallicFactor":0,
				"roughnessFactor":0.2531645596027374
			}
		},
		{
			"doubleSided":true,
			"name":"Material.002",
			"pbrMetallicRoughness":{
				"baseColorFactor":[
					0.3849044442176819,
					0.3849044442176819,
					0.3849044442176819,
					1
				],
				"metallicFactor":0
			}
		},
		{
			"doubleSided":true,
			"name":"Material.004",
			"pbrMetallicRoughness":{
				"baseColorFactor":[
					0.40699470043182373,
					0.305803120136261,
					0.28144028782844543,
					1
				],
				"metallicFactor":0,
				"roughnessFactor":0.2531645596027374
			}
		},
		{
			"doubleSided":true,
			"name":"Material.005",
			"pbrMetallicRoughness":{
				"baseColorFactor":[
					0,
					0,
					0,
					1
				],
				"metallicFactor":0.8459214568138123,
				"roughnessFactor":0
			}
		},
		{
			"doubleSided":true,
			"name":"Material.003",
			"pbrMetallicRoughness":{
				"baseColorFactor":[
					0.22273984551429749,
					0.22273984551429749,
					0.22273984551429749,
					1
				],
				"metallicFactor":0
			}
		},
		{
			"doubleSided":true,
			"emissiveFactor":[
				1,
				0.8301377296447754,
				0.3130461573600769
			],
			"extensions":{
				"KHR_materials_emissive_strength":{
					"emissiveStrength":2
				}
			},
			"name":"Material.006",
			"pbrMetallicRoughness":{
				"baseColorFactor":[
					0.800000011920929,
					0.800000011920929,
					0.800000011920929,
					1
				],
				"metallicFactor":0,
				"roughnessFactor":0.5
			}
		}
	],
	"meshes":[
		{
			"name":"Mesh",
			"primitives":[
				{
					"attributes":{
						"POSITION":0,
						"NORMAL":1,
						"TEXCOORD_0":2
					},
					"indices":3,
					"material":0
				},
				{
					"attributes":{
						"POSITION":4,
						"NORMAL":5,
						"TEXCOORD_0":6
					},
					"indices":7,
					"material":1
				}
			]
		},
		{
			"name":"Mesh",
			"primitives":[
				{
					"attributes":{
						"POSITION":8,
						"NORMAL":9,
						"TEXCOORD_0":10
					},
					"indices":11,
					"material":2
				},
				{
					"attributes":{
						"POSITION":12,
						"NORMAL":13,
						"TEXCOORD_0":14
					},
					"indices":15,
					"material":3
				}
			]
		},
		{
			"name":"Cube.001",
			"primitives":[
				{
					"attributes":{
						"POSITION":16,
						"NORMAL":17,
						"TEXCOORD_0":18
					},
					"indices":19,
					"material":4
				}
			]
		},
		{
			"name":"Text",
			"primitives":[
				{
					"attributes":{
						"POSITION":20,
						"NORMAL":21,
						"TEXCOORD_0":22
					},
					"indices":23,
					"material":5
				}
			]
		}
	],
	"accessors":[
		{
			"bufferView":0,
			"componentType":5126,
			"count":39777,
			"max":[
				0.9999542832374573,
				0,
				1.2683110237121582
			],
			"min":[
				-0.9999542832374573,
				-0.056853555142879486,
				-1.2683110237121582
			],
			"type":"VEC3"
		},
		{
			"bufferView":1,
			"componentType":5126,
			"count":39777,
			"type":"VEC3"
		},
		{
			"bufferView":2,
			"componentType":5126,
			"count":39777,
			"type":"VEC2"
		},
		{
			"bufferView":3,
			"componentType":5123,
			"count":226944,
			"type":"SCALAR"
		},
		{
			"bufferView":4,
			"componentType":5126,
			"count":641,
			"max":[
				0.8720504641532898,
				-0.008327643387019634,
				0.41038379073143005
			],
			"min":[
				0.5088456869125366,
				-0.024020684882998466,
				-0.4211435914039612
			],
			"type":"VEC3"
		},
		{
			"bufferView":5,
			"componentType":5126,
			"count":641,
			"type":"VEC3"
		},
		{
			"bufferView":6,
			"componentType":5126,
			"count":641,
			"type":"VEC2"
		},
		{
			"bufferView":7,
			"componentType":5123,
			"count":3456,
			"type":"SCALAR"
		},
		{
			"bufferView":8,
			"componentType":5126,
			"count":10112,
			"max":[
				1.000000238418579,
				0.03731757402420044,
				1.2557390928268433
			],
			"min":[
				-1.000000238418579,
				0,
				-1.2557390928268433
			],
			"type":"VEC3"
		},
		{
			"bufferView":9,
			"componentType":5126,
			"count":10112,
			"type":"VEC3"
		},
		{
			"bufferView":10,
			"componentType":5126,
			"count":10112,
			"type":"VEC2"
		},
		{
			"bufferView":11,
			"componentType":5123,
			"count":56448,
			"type":"SCALAR"
		},
		{
			"bufferView":12,
			"componentType":5126,
			"count":653,
			"max":[
				0.9649204611778259,
				0.004132983274757862,
				1.2228538990020752
			],
			"min":[
				-0.9635229706764221,
				0.004132981877774,
				-1.2228538990020752
			],
			"type":"VEC3"
		},
		{
			"bufferView":13,
			"componentType":5126,
			"count":653,
			"type":"VEC3"
		},
		{
			"bufferView":14,
			"componentType":5126,
			"count":653,
			"type":"VEC2"
		},
		{
			"bufferView":15,
			"componentType":5123,
			"count":3456,
			"type":"SCALAR"
		},
		{
			"bufferView":16,
			"componentType":5126,
			"count":3600,
			"max":[
				22.599998474121094,
				1,
				1
			],
			"min":[
				-1,
				-1,
				-34.599998474121094
			],
			"type":"VEC3"
		},
		{
			"bufferView":17,
			"componentType":5126,
			"count":3600,
			"type":"VEC3"
		},
		{
			"bufferView":18,
			"componentType":5126,
			"count":3600,
			"type":"VEC2"
		},
		{
			"bufferView":19,
			"componentType":5123,
			"count":5400,
			"type":"SCALAR"
		},
		{
			"bufferView":20,
			"componentType":5126,
			"count":11310,
			"max":[
				1.4293298721313477,
				0.004999999888241291,
				1.0049999952316284
			],
			"min":[
				-1.4029381275177002,
				-0.004999999888241291,
				-0.6503608226776123
			],
			"type":"VEC3"
		},
		{
			"bufferView":21,
			"componentType":5126,
			"count":11310,
			"type":"VEC3"
		},
		{
			"bufferView":22,
			"componentType":5126,
			"count":11310,
			"type":"VEC2"
		},
		{
			"bufferView":23,
			"componentType":5123,
			"count":61200,
			"type":"SCALAR"
		}
	],
	"bufferViews":[
		{
			"buffer":0,
			"byteLength":477324,
			"byteOffset":0,
			"target":34962
		},
		{
			"buffer":0,
			"byteLength":477324,
			"byteOffset":477324,
			"target":34962
		},
		{
			"buffer":0,
			"byteLength":318216,
			"byteOffset":954648,
			"target":34962
		},
		{
			"buffer":0,
			"byteLength":453888,
			"byteOffset":1272864,
			"target":34963
		},
		{
			"buffer":0,
			"byteLength":7692,
			"byteOffset":1726752,
			"target":34962
		},
		{
			"buffer":0,
			"byteLength":7692,
			"byteOffset":1734444,
			"target":34962
		},
		{
			"buffer":0,
			"byteLength":5128,
			"byteOffset":1742136,
			"target":34962
		},
		{
			"buffer":0,
			"byteLength":6912,
			"byteOffset":1747264,
			"target":34963
		},
		{
			"buffer":0,
			"byteLength":121344,
			"byteOffset":1754176,
			"target":34962
		},
		{
			"buffer":0,
			"byteLength":121344,
			"byteOffset":1875520,
			"target":34962
		},
		{
			"buffer":0,
			"byteLength":80896,
			"byteOffset":1996864,
			"target":34962
		},
		{
			"buffer":0,
			"byteLength":112896,
			"byteOffset":2077760,
			"target":34963
		},
		{
			"buffer":0,
			"byteLength":7836,
			"byteOffset":2190656,
			"target":34962
		},
		{
			"buffer":0,
			"byteLength":7836,
			"byteOffset":2198492,
			"target":34962
		},
		{
			"buffer":0,
			"byteLength":5224,
			"byteOffset":2206328,
			"target":34962
		},
		{
			"buffer":0,
			"byteLength":6912,
			"byteOffset":2211552,
			"target":34963
		},
		{
			"buffer":0,
			"byteLength":43200,
			"byteOffset":2218464,
			"target":34962
		},
		{
			"buffer":0,
			"byteLength":43200,
			"byteOffset":2261664,
			"target":34962
		},
		{
			"buffer":0,
			"byteLength":28800,
			"byteOffset":2304864,
			"target":34962
		},
		{
			"buffer":0,
			"byteLength":10800,
			"byteOffset":2333664,
			"target":34963
		},
		{
			"buffer":0,
			"byteLength":135720,
			"byteOffset":2344464,
			"target":34962
		},
		{
			"buffer":0,
			"byteLength":135720,
			"byteOffset":2480184,
			"target":34962
		},
		{
			"buffer":0,
			"byteLength":90480,
			"byteOffset":2615904,
			"target":34962
		},
		{
			"buffer":0,
			"byteLength":122400,
			"byteOffset":2706384,
			"target":34963
		}
	],
	"buffers":[
		{
			"byteLength":2828784,
			"uri":"scene.bin"
		}
	]
}
