{
	"asset":{
		"generator":"Khronos glTF Blender I/O v4.0.44",
		"version":"2.0"
	},
	"extensionsUsed":[
		"KHR_materials_emissive_strength"
	],
	"scene":0,
	"scenes":[
		{
			"name":"Scene",
			"nodes":[
				0
			]
		}
	],
	"nodes":[
		{
			"mesh":0,
			"name":"Cube",
			"rotation":[
				0.2906080484390259,
				0.08080286532640457,
				0.25540825724601746,
				0.9185774326324463
			],
			"scale":[
				23.158090591430664,
				16.36796760559082,
				3.691276788711548
			],
			"translation":[
				0,
				0.7738590240478516,
				0
			]
		}
	],
	"animations":[
		{
			"channels":[
				{
					"sampler":0,
					"target":{
						"node":0,
						"path":"rotation"
					}
				}
			],
			"name":"CubeAction",
			"samplers":[
				{
					"input":15,
					"interpolation":"LINEAR",
					"output":16
				}
			]
		}
	],
	"materials":[
		{
			"doubleSided":true,
			"name":"Material.001",
			"pbrMetallicRoughness":{
				"baseColorFactor":[
					0,
					0,
					0,
					1
				],
				"metallicFactor":0,
				"roughnessFactor":0.78899085521698
			}
		},
		{
			"doubleSided":true,
			"emissiveFactor":[
				1,
				0.005748891271650791,
				0
			],
			"extensions":{
				"KHR_materials_emissive_strength":{
					"emissiveStrength":20
				}
			},
			"name":"Material.002",
			"pbrMetallicRoughness":{
				"baseColorFactor":[
					0.8001810312271118,
					0,
					0.02020813152194023,
					1
				],
				"metallicFactor":0,
				"roughnessFactor":0.5
			}
		},
		{
			"doubleSided":true,
			"name":"Material.003",
			"pbrMetallicRoughness":{
				"baseColorFactor":[
					0.8041545748710632,
					0.001034479821100831,
					0,
					1
				],
				"roughnessFactor":0
			}
		}
	],
	"meshes":[
		{
			"name":"Cube.001",
			"primitives":[
				{
					"attributes":{
						"POSITION":0,
						"NORMAL":1,
						"TEXCOORD_0":2,
						"TEXCOORD_1":3
					},
					"indices":4,
					"material":0
				},
				{
					"attributes":{
						"POSITION":5,
						"NORMAL":6,
						"TEXCOORD_0":7,
						"TEXCOORD_1":8
					},
					"indices":9,
					"material":1
				},
				{
					"attributes":{
						"POSITION":10,
						"NORMAL":11,
						"TEXCOORD_0":12,
						"TEXCOORD_1":13
					},
					"indices":14,
					"material":2
				}
			]
		}
	],
	"accessors":[
		{
			"bufferView":0,
			"componentType":5126,
			"count":3275,
			"max":[
				0.9905043244361877,
				1,
				0.6227360963821411
			],
			"min":[
				-1.0002084970474243,
				-0.9837685823440552,
				-0.6227360963821411
			],
			"type":"VEC3"
		},
		{
			"bufferView":1,
			"componentType":5126,
			"count":3275,
			"type":"VEC3"
		},
		{
			"bufferView":2,
			"componentType":5126,
			"count":3275,
			"type":"VEC2"
		},
		{
			"bufferView":3,
			"componentType":5126,
			"count":3275,
			"type":"VEC2"
		},
		{
			"bufferView":4,
			"componentType":5123,
			"count":8844,
			"type":"SCALAR"
		},
		{
			"bufferView":5,
			"componentType":5126,
			"count":206,
			"max":[
				0.9905043244361877,
				0.8498314023017883,
				0.5350641012191772
			],
			"min":[
				-0.998412549495697,
				-0.8364198803901672,
				-0.5350641012191772
			],
			"type":"VEC3"
		},
		{
			"bufferView":6,
			"componentType":5126,
			"count":206,
			"type":"VEC3"
		},
		{
			"bufferView":7,
			"componentType":5126,
			"count":206,
			"type":"VEC2"
		},
		{
			"bufferView":8,
			"componentType":5126,
			"count":206,
			"type":"VEC2"
		},
		{
			"bufferView":9,
			"componentType":5123,
			"count":354,
			"type":"SCALAR"
		},
		{
			"bufferView":10,
			"componentType":5126,
			"count":522,
			"max":[
				0.9551007747650146,
				1,
				0.6403536796569824
			],
			"min":[
				-0.8581673502922058,
				-0.018090035766363144,
				-0.6403536796569824
			],
			"type":"VEC3"
		},
		{
			"bufferView":11,
			"componentType":5126,
			"count":522,
			"type":"VEC3"
		},
		{
			"bufferView":12,
			"componentType":5126,
			"count":522,
			"type":"VEC2"
		},
		{
			"bufferView":13,
			"componentType":5126,
			"count":522,
			"type":"VEC2"
		},
		{
			"bufferView":14,
			"componentType":5123,
			"count":948,
			"type":"SCALAR"
		},
		{
			"bufferView":15,
			"componentType":5126,
			"count":91,
			"max":[
				3.75
			],
			"min":[
				0
			],
			"type":"SCALAR"
		},
		{
			"bufferView":16,
			"componentType":5126,
			"count":91,
			"type":"VEC4"
		}
	],
	"bufferViews":[
		{
			"buffer":0,
			"byteLength":39300,
			"byteOffset":0,
			"target":34962
		},
		{
			"buffer":0,
			"byteLength":39300,
			"byteOffset":39300,
			"target":34962
		},
		{
			"buffer":0,
			"byteLength":26200,
			"byteOffset":78600,
			"target":34962
		},
		{
			"buffer":0,
			"byteLength":26200,
			"byteOffset":104800,
			"target":34962
		},
		{
			"buffer":0,
			"byteLength":17688,
			"byteOffset":131000,
			"target":34963
		},
		{
			"buffer":0,
			"byteLength":2472,
			"byteOffset":148688,
			"target":34962
		},
		{
			"buffer":0,
			"byteLength":2472,
			"byteOffset":151160,
			"target":34962
		},
		{
			"buffer":0,
			"byteLength":1648,
			"byteOffset":153632,
			"target":34962
		},
		{
			"buffer":0,
			"byteLength":1648,
			"byteOffset":155280,
			"target":34962
		},
		{
			"buffer":0,
			"byteLength":708,
			"byteOffset":156928,
			"target":34963
		},
		{
			"buffer":0,
			"byteLength":6264,
			"byteOffset":157636,
			"target":34962
		},
		{
			"buffer":0,
			"byteLength":6264,
			"byteOffset":163900,
			"target":34962
		},
		{
			"buffer":0,
			"byteLength":4176,
			"byteOffset":170164,
			"target":34962
		},
		{
			"buffer":0,
			"byteLength":4176,
			"byteOffset":174340,
			"target":34962
		},
		{
			"buffer":0,
			"byteLength":1896,
			"byteOffset":178516,
			"target":34963
		},
		{
			"buffer":0,
			"byteLength":364,
			"byteOffset":180412
		},
		{
			"buffer":0,
			"byteLength":1456,
			"byteOffset":180776
		}
	],
	"buffers":[
		{
			"byteLength":182232,
			"uri":"scene.bin"
		}
	]
}
